:SAMPLES-PER-SECOND 30
:FULLY-SPECIFIED
:DEGREES
206
root  5.74167 38.173 -30.822 -179.872 8.45961 179.878
RightUpLeg  3.60644 -1.81848 5.13241
RightLeg  24.2176 9.95273 -3.71907
RightFoot  -22.7032 -0.13144 -2.47843
RightToes  3.97569e-016 -3.18055e-015 -2.98177e-016
Spine  4.76357 1.40066 11.8537
Spine1  7.17698 3.75242 -5.23684
HEad  -7.02744 1.54187 -5.80922
LeftShoulder1  -3.88251e-019 9.70628e-020 -3.87848e-018
LeftArm  -9.48055 69.0347 -69.5981
LeftForeArm  -8.15874 -24.8049 1.33905
LeftHand  -0.998549 -5.95628 10.8198
RightShoulder  8.56377 10.997 39.563
RightArm  9.52248 -39.0087 19.4538
RightForeArm  7.64515 14.1865 -2.81031
RightHand  -0.966818 1.14218 -16.8478
LeftUpLeg  -36.204 6.0737 -4.16614
LeftLeg  59.993 -5.05483 17.694
LeftFoot  2.95483 -0.0755612 0.597714
LeftToes  4.86531e-011 4.41684e-011 -2.86034e-011
207
root  5.66621 38.259 -31.4373 -179.282 9.20732 179.547
RightUpLeg  4.35651 -1.45353 4.37949
RightLeg  23.0202 10.4875 -3.43996
RightFoot  -22.1368 -0.066215 -1.7712
RightToes  3.97569e-016 -3.18055e-015 -2.98177e-016
Spine  4.64977 2.09665 12.4133
Spine1  6.14998 4.4502 -6.70188
HEad  -6.88674 0.779278 -5.28786
LeftShoulder1  -3.88251e-019 9.70628e-020 -3.87848e-018
LeftArm  -14.2889 72.4312 -70.8863
LeftForeArm  -4.64263 -23.1351 -0.404271
LeftHand  -0.895984 -5.38639 10.2494
RightShoulder  8.30533 10.8428 38.6738
RightArm  20.4241 -36.3813 23.3037
RightForeArm  -8.09676 19.8064 -7.37172
RightHand  -0.923216 0.600233 -17.4854
LeftUpLeg  -37.4259 6.06398 -5.03027
LeftLeg  54.2544 -3.09884 17.1056
LeftFoot  1.16931 -0.154714 1.26754
LeftToes  4.86531e-011 4.41684e-011 -2.86034e-011
208
root  5.58712 38.3326 -32.066 -178.666 10.0099 179.267
RightUpLeg  5.24182 -1.13252 3.65215
RightLeg  21.5037 11.1089 -3.16676
RightFoot  -21.5695 0.00296404 -0.91249
RightToes  3.97569e-016 -3.18055e-015 -2.98177e-016
Spine  4.54904 2.87498 12.7062
Spine1  5.4069 5.18364 -7.9707
HEad  -6.95554 0.00131791 -4.71398
LeftShoulder1  -3.88251e-019 9.70628e-020 -3.87848e-018
LeftArm  -19.66 75.5058 -72.3795
LeftForeArm  0.110329 -21.1067 -2.04373
LeftHand  -0.777775 -5.06836 9.20979
RightShoulder  8.07999 10.6996 37.9011
RightArm  28.0979 -33.207 26.2701
RightForeArm  -19.8253 25.0619 -12.8697
RightHand  -0.834499 0.0398794 -17.3961
LeftUpLeg  -37.7271 6.19202 -5.55418
LeftLeg  46.5695 -0.998151 15.488
LeftFoot  -0.712194 -0.23391 2.14721
LeftToes  4.86531e-011 4.41684e-011 -2.86034e-011
209
root  5.49803 38.3209 -32.713 -178.194 10.9442 179.123
RightUpLeg  6.27382 -0.699764 3.05947
RightLeg  20.159 11.8014 -3.05026
RightFoot  -21.251 0.0667841 -0.0320648
RightToes  3.97569e-016 -3.18055e-015 -2.98177e-016
Spine  4.77693 3.61554 12.9933
Spine1  4.78698 5.92715 -9.06531
HEad  -7.5033 -0.575615 -4.15079
LeftShoulder1  -3.88251e-019 9.70628e-020 -3.87848e-018
LeftArm  -25.3803 78.2191 -74.4854
LeftForeArm  5.49723 -18.9898 -3.07828
LeftHand  -0.659942 -5.10506 7.82904
RightShoulder  7.8831 10.5732 37.2152
RightArm  27.6695 -29.5294 28.4826
RightForeArm  -22.583 31.0229 -15.6671
RightHand  -0.841264 0.0715586 -17.4377
LeftUpLeg  -37.0757 6.49328 -5.70959
LeftLeg  37.7888 -0.280212 12.1888
LeftFoot  -2.90883 -0.235518 2.5284
LeftToes  4.86531e-011 4.41684e-011 -2.86034e-011
210
root  5.38267 38.1448 -33.429 -178.208 11.7437 179.244
RightUpLeg  7.70644 -0.650033 2.4609
RightLeg  19.6403 12.8603 -2.80875
RightFoot  -21.8972 0.126279 0.723916
RightToes  3.97569e-016 -3.18055e-015 -2.98177e-016
Spine  5.36123 4.1188 13.8196
Spine1  4.54296 6.65401 -10.2874
HEad  -8.66868 -1.04731 -3.48414
LeftShoulder1  -3.88251e-019 9.70628e-020 -3.87848e-018
LeftArm  -30.4381 80.426 -76.8305
LeftForeArm  10.3539 -17.062 -3.434
LeftHand  -0.50557 -4.9845 6.1152
RightShoulder  7.68987 10.4519 36.5239
RightArm  26.9588 -25.8729 30.5568
RightForeArm  -24.8578 36.2481 -18.7892
RightHand  -0.989807 0.879699 -17.9243
LeftUpLeg  -35.2067 6.43375 -5.41112
LeftLeg  29.5538 -1.30777 8.55568
LeftFoot  -5.31462 -0.117693 1.50102
LeftToes  4.86531e-011 4.41684e-011 -2.86034e-011
211
root  5.23717 37.9168 -34.2191 -178.798 12.4144 179.415
RightUpLeg  9.70616 -0.890624 1.54952
RightLeg  19.5573 14.2763 -2.26914
RightFoot  -23.0413 0.173915 1.15589
RightToes  3.97569e-016 -3.18055e-015 -2.98177e-016
Spine  6.00988 4.36429 14.8879
Spine1  5.26848 7.48485 -11.8728
HEad  -10.2288 -1.48314 -2.63543
LeftShoulder1  -3.88251e-019 9.70628e-020 -3.87848e-018
LeftArm  -33.8762 82.2657 -78.7166
LeftForeArm  13.1514 -15.6216 -3.39029
LeftHand  -0.319435 -4.34967 4.19302
RightShoulder  7.54023 10.3604 35.9746
RightArm  25.8015 -22.0979 32.527
RightForeArm  -26.0329 40.1065 -21.4682
RightHand  -1.21382 1.96613 -18.7854
LeftUpLeg  -32.301 5.819 -4.98221
LeftLeg  23.5192 -2.36143 6.33187
LeftFoot  -5.59879 -0.0229177 0.174742
LeftToes  4.86531e-011 4.41684e-011 -2.86034e-011
212
root  5.07799 37.783 -35.0654 -179.549 13.0745 179.201
RightUpLeg  11.7209 -0.572492 0.301576
RightLeg  19.5359 15.2441 -1.83777
RightFoot  -23.3882 0.183575 1.20032
RightToes  3.97569e-016 -3.18055e-015 -2.98177e-016
Spine  6.49102 4.43129 15.0967
Spine1  6.59996 8.24605 -13.3074
HEad  -11.823 -1.60917 -1.69112
LeftShoulder1  -3.88251e-019 9.70628e-020 -3.87848e-018
LeftArm  -37.3246 83.9804 -81.1707
LeftForeArm  13.58 -14.5416 -3.25682
LeftHand  -0.184753 -3.58739 2.71933
RightShoulder  7.49012 10.3402 35.7652
RightArm  24.7461 -18.2169 34.5773
RightForeArm  -25.7595 42.036 -22.9952
RightHand  -1.45119 2.92715 -19.8903
LeftUpLeg  -29.5731 5.06289 -5.12521
LeftLeg  20.6697 -1.9821 5.84335
LeftFoot  -2.04605 -0.108658 0.94347
LeftToes  4.86531e-011 4.41684e-011 -2.86034e-011
213
root  4.92697 37.7086 -36.0009 -179.971 13.2725 178.457
RightUpLeg  12.7835 0.369919 -1.15521
RightLeg  20.6832 15.0252 -1.65146
RightFoot  -22.7064 0.221767 1.76981
RightToes  3.97569e-016 -3.18055e-015 -2.98177e-016
Spine  6.82476 4.28779 13.9919
Spine1  7.15381 8.39469 -13.9616
HEad  -13.2342 -1.44087 -0.846216
LeftShoulder1  -3.88251e-019 9.70628e-020 -3.87848e-018
LeftArm  -41.2466 85.1242 -83.9108
LeftForeArm  13.3138 -12.8608 -3.07404
LeftHand  -0.138868 -3.23355 2.1606
RightShoulder  7.51769 10.3771 35.8221
RightArm  23.6963 -15.3745 36.5392
RightForeArm  -23.7366 42.6287 -23.6025
RightHand  -1.67049 3.74825 -20.8524
LeftUpLeg  -28.395 4.34118 -6.13498
LeftLeg  21.1541 -1.17556 6.31406
LeftFoot  2.40488 -0.45621 3.42461
LeftToes  4.86531e-011 4.41684e-011 -2.86034e-011
214
root  4.79046 37.6357 -37.0396 179.951 12.3862 177.46
RightUpLeg  12.3414 -0.226159 -3.17102
RightLeg  24.5929 15.0491 -1.21673
RightFoot  -21.1947 0.368999 4.36393
RightToes  3.97569e-016 -3.18055e-015 -2.98177e-016
Spine  7.21302 3.90415 12.4118
Spine1  6.38809 7.89855 -14.1101
HEad  -14.2151 -1.74187 -0.304471
LeftShoulder1  -3.88251e-019 9.70628e-020 -3.87848e-018
LeftArm  -38.4673 84.6735 -79.4491
LeftForeArm  14.4149 -9.50323 -2.70131
LeftHand  -0.126461 -3.01329 2.02055
RightShoulder  7.55716 10.4154 35.9362
RightArm  22.3019 -14.9511 37.3638
RightForeArm  -21.2945 43.3345 -24.3498
RightHand  -1.83749 4.38739 -21.4409
LeftUpLeg  -28.3893 3.20843 -7.65829
LeftLeg  23.5751 -1.02886 7.01668
LeftFoot  3.14775 -0.718794 5.12169
LeftToes  4.86531e-011 4.41684e-011 -2.86034e-011
215
root  4.6505 37.6463 -38.1479 179.887 10.9377 176.608
RightUpLeg  10.2875 -3.05085 -5.71344
RightLeg  31.6185 16.2801 -0.538543
RightFoot  -17.1051 0.317333 8.42042
RightToes  3.97569e-016 -3.18055e-015 -2.98177e-016
Spine  7.70054 3.57726 11.5161
Spine1  5.19967 7.5261 -14.5817
HEad  -14.2483 -2.97903 -0.166387
LeftShoulder1  -3.88251e-019 9.70628e-020 -3.87848e-018
LeftArm  -32.1982 82.0882 -71.0583
LeftForeArm  16.6236 -4.7149 -1.93214
LeftHand  -0.101247 -2.15072 1.7989
RightShoulder  7.60319 10.4457 36.1007
RightArm  21.218 -16.801 36.2919
RightForeArm  -20.7738 44.6062 -25.5152
RightHand  -1.96363 4.72771 -22.129
LeftUpLeg  -27.7116 1.89876 -9.1571
LeftLeg  25.4631 -1.18059 7.45917
LeftFoot  0.176214 -0.622561 5.33823
LeftToes  4.86531e-011 4.41684e-011 -2.86034e-011
216
root  4.50103 37.8106 -39.2546 179.612 10.3027 175.994
RightUpLeg  6.37474 -4.48288 -7.64662
RightLeg  40.6041 16.0333 -0.678442
RightFoot  -7.68516 -0.447131 10.2195
RightToes  3.97569e-016 -3.18055e-015 -2.98177e-016
Spine  8.22388 3.6052 11.2247
Spine1  4.42749 7.74189 -15.4703
HEad  -13.0577 -4.24131 -0.348306
LeftShoulder1  -3.88251e-019 9.70628e-020 -3.87848e-018
LeftArm  -31.0252 78.2977 -67.6161
LeftForeArm  17.5312 -0.747662 -0.723104
LeftHand  -0.0933652 -0.637373 2.0224
RightShoulder  7.68543 10.4999 36.393
RightArm  21.5919 -19.3798 34.3236
RightForeArm  -22.0648 45.1832 -25.9688
RightHand  -2.09226 4.88939 -23.1807
LeftUpLeg  -25.5257 1.63769 -10.3977
LeftLeg  25.454 -1.27986 7.40748
LeftFoot  -2.68046 -0.484004 5.23838
LeftToes  4.86531e-011 4.41684e-011 -2.86034e-011
217
root  4.3869 37.9991 -40.2432 179.165 10.8084 175.284
RightUpLeg  0.734023 -3.87457 -8.68502
RightLeg  49.4871 14.4586 -2.63885
RightFoot  5.07569 -1.1537 7.19664
RightToes  3.97569e-016 -3.18055e-015 -2.98177e-016
Spine  8.97176 3.78921 10.0793
Spine1  3.99904 7.9716 -15.9744
HEad  -11.3419 -4.19074 -0.644294
LeftShoulder1  -3.88251e-019 9.70628e-020 -3.87848e-018
LeftArm  -32.7098 74.6897 -67.7012
LeftForeArm  15.5545 0.00475217 0.418346
LeftHand  -0.121636 0.652432 3.21313
RightShoulder  7.7668 10.5656 36.6527
RightArm  23.3258 -21.5835 33.2784
RightForeArm  -21.9576 43.8295 -24.7342
RightHand  -2.16439 5.11209 -23.4735
LeftUpLeg  -22.972 2.55958 -11.558
LeftLeg  24.6337 -1.29287 7.17982
LeftFoot  -3.80818 -0.467907 5.63543
LeftToes  4.86531e-011 4.41684e-011 -2.86034e-011
218
root  4.3624 38.0679 -41.0736 178.632 11.3225 174.391
RightUpLeg  -5.32615 -3.08 -9.10945
RightLeg  56.9591 12.8609 -6.05236
RightFoot  13.533 -0.59143 2.13507
RightToes  3.97569e-016 -3.18055e-015 -2.98177e-016
Spine  9.96658 3.70255 7.43519
Spine1  3.78866 7.52072 -15.6464
HEad  -10.1963 -2.83645 -0.892794
LeftShoulder1  -3.88251e-019 9.70628e-020 -3.87848e-018
LeftArm  -33.406 71.2342 -68.227
LeftForeArm  12.1036 0.0189072 0.371708
LeftHand  -0.153663 1.15089 4.56898
RightShoulder  7.80778 10.6087 36.76
RightArm  25.1764 -23.5973 33.4226
RightForeArm  -18.318 40.8098 -22.4467
RightHand  -2.04611 5.40424 -21.6391
LeftUpLeg  -21.0931 3.02123 -12.6348
LeftLeg  24.5549 -1.03333 7.29587
LeftFoot  -4.9475 -0.426121 5.77888
LeftToes  4.86531e-011 4.41684e-011 -2.86034e-011
